<?xml version="1.0" encoding="UTF-8"?><svg id="b" xmlns="http://www.w3.org/2000/svg" width="16" height="28" viewBox="0 0 16 28"><path d="M2.56,28c-.15,0-.31-.04-.45-.11-.42-.21-.63-.68-.52-1.13l2.7-10.74-3.03.8c-.43.11-.87-.06-1.1-.43-.23-.37-.2-.84.08-1.18L12.68.36C12.98,0,13.48-.1,13.9.11c.42.21.63.68.52,1.13l-2.7,10.74,3.03-.8c.42-.11.87.06,1.1.43.23.37.2.84-.08,1.18L3.32,27.64c-.2.23-.48.36-.77.36ZM5.67,13.62c.26,0,.51.1.7.29.25.25.35.61.27.96l-2.05,8.15,7.62-9.1-1.62.43c-.34.09-.71,0-.96-.25-.25-.25-.35-.61-.27-.96l2.05-8.15L3.79,14.08l1.62-.43c.08-.02.17-.03.26-.03Z"/></svg>