<?xml version="1.0" encoding="UTF-8"?><svg id="b" xmlns="http://www.w3.org/2000/svg" width="19.03" height="20" viewBox="0 0 19.03 20"><path d="M9.51,2c.5,0,.9.05,1.17.1l.35,1.12.03.11.05.1c.51,1.16,1.67,1.92,2.94,1.92.12,0,.23,0,.35-.02h.11s.11-.04.11-.04l1.15-.26c.42.48.96,1.42,1.17,2.02l-.8.87-.08.08-.07.09c-.83,1.13-.83,2.66,0,3.79l.07.09.08.08.8.87c-.21.61-.74,1.54-1.17,2.02l-1.15-.26-.11-.02h-.11c-.12-.02-.23-.03-.35-.03-1.27,0-2.43.75-2.94,1.92l-.05.1-.03.11-.35,1.12c-.27.05-.67.1-1.17.1s-.9-.05-1.17-.1l-.35-1.12-.03-.11-.05-.1c-.51-1.16-1.67-1.92-2.94-1.92h0c-.12,0-.23,0-.35.02h-.11s-.11.04-.11.04l-1.15.26c-.42-.48-.96-1.42-1.17-2.02l.8-.87.08-.08.07-.09c.83-1.13.83-2.66,0-3.8l-.07-.09-.08-.08-.8-.87c.21-.61.74-1.54,1.17-2.02l1.15.26.11.02h.11c.12.02.23.03.35.03,1.27,0,2.43-.75,2.94-1.92l.05-.1.03-.11.35-1.12c.27-.05.67-.1,1.17-.1M9.51,0c-1.31,0-2.62.27-2.86.81l-.57,1.81c-.2.44-.63.72-1.11.72-.04,0-.09,0-.13,0l-1.85-.41s-.04,0-.05,0C1.74,2.92-.56,6.94.13,7.89l1.29,1.4c.31.43.31,1.01,0,1.43l-1.29,1.4c-.69.94,1.61,4.96,2.81,4.96.02,0,.04,0,.05,0l1.85-.41s.09,0,.13,0c.48,0,.91.28,1.11.72l.57,1.81c.24.54,1.55.81,2.86.81s2.62-.27,2.86-.81l.57-1.81c.2-.44.63-.72,1.11-.72.04,0,.09,0,.13,0l1.85.41s.04,0,.05,0c1.2,0,3.5-4.02,2.81-4.96l-1.29-1.4c-.31-.43-.31-1.01,0-1.43l1.29-1.4c.69-.94-1.61-4.96-2.81-4.96-.02,0-.04,0-.05,0l-1.85.41s-.09,0-.13,0c-.48,0-.91-.28-1.11-.72l-.57-1.81c-.24-.54-1.55-.81-2.86-.81h0Z"/><path d="M9.52,8.08h0c.34,0,.66.09.96.26.92.53,1.23,1.71.7,2.62-.34.59-.98.96-1.67.96-.34,0-.66-.09-.96-.26-.44-.26-.76-.67-.9-1.17s-.06-1.01.19-1.46c.34-.59.98-.96,1.67-.96M9.52,6.08c-1.36,0-2.67.7-3.4,1.96-1.08,1.88-.44,4.27,1.44,5.36.62.36,1.29.53,1.96.53,1.36,0,2.67-.7,3.4-1.96,1.08-1.88.44-4.27-1.44-5.36-.62-.36-1.29-.53-1.96-.53h0Z"/></svg>