<?xml version="1.0" encoding="UTF-8"?><svg id="b" xmlns="http://www.w3.org/2000/svg" width="30" height="28" viewBox="0 0 30 28"><path d="M25,0H5C2.24,0,0,2.24,0,5v18c0,2.76,2.24,5,5,5h20c2.76,0,5-2.24,5-5V5c0-2.76-2.24-5-5-5ZM28,23c0,1.65-1.35,3-3,3H5c-1.65,0-3-1.35-3-3V5c0-1.65,1.35-3,3-3h20c1.65,0,3,1.35,3,3v18Z" stroke-width="0"/><path d="M24.38,7.58c-.12-.05-.25-.08-.38-.08h-6c-.55,0-1,.45-1,1s.45,1,1,1h3.59l-6.59,6.59v-4.59c0-.4-.24-.77-.62-.92-.38-.15-.8-.07-1.09.22l-8,8c-.39.39-.39,1.02,0,1.41.2.2.45.29.71.29s.51-.1.71-.29l6.29-6.29v4.59c0,.4.24.77.62.92.37.15.8.07,1.09-.22l8.29-8.29v3.59c0,.55.45,1,1,1s1-.45,1-1v-6c0-.13-.03-.26-.08-.38-.1-.24-.3-.44-.54-.54Z" stroke-width="0"/></svg>