<?xml version="1.0" encoding="UTF-8"?><svg id="b" xmlns="http://www.w3.org/2000/svg" width="35" height="30" viewBox="0 0 35 30"><g id="c"><path d="M21.57,2.23l12.8,21.07c1.3,2.14.53,4.87-1.72,6.1-.71.39-1.52.6-2.35.6H4.7c-2.59,0-4.7-2-4.7-4.47,0-.78.22-1.55.63-2.23L13.43,2.23C14.73.1,17.6-.63,19.85.6c.71.39,1.31.95,1.72,1.63ZM15.61,25.19l-4.94-8.25c-.61-1.01-.25-2.32.79-2.91.33-.19.71-.29,1.1-.29h9.89c1.21,0,2.19.95,2.19,2.13,0,.38-.1.75-.3,1.07l-4.94,8.25c-.61,1.01-1.95,1.36-2.99.77-.33-.18-.6-.45-.79-.77Z" fill="#fff" fill-rule="evenodd" stroke-width="0"/></g></svg>