<?xml version="1.0" encoding="UTF-8"?><svg id="b" xmlns="http://www.w3.org/2000/svg" width="32" height="22" viewBox="0 0 32 22"><path d="M28.5,7.01h-.5v-2.01c0-2.76-2.24-5-5-5H5C2.24,0,0,2.24,0,5v12c0,2.76,2.24,5,5,5h18c2.76,0,5-2.24,5-5v-1.99h.5c1.93,0,3.5-1.56,3.5-3.5v-1c0-1.93-1.57-3.5-3.5-3.5ZM30,11.51c0,.83-.67,1.5-1.5,1.5h-5c-.83,0-1.5-.67-1.5-1.5v-1c0-.82.67-1.5,1.5-1.5h5c.83,0,1.5.68,1.5,1.5v1ZM26,17c0,1.65-1.35,3-3,3H5c-1.65,0-3-1.35-3-3V5c0-1.66,1.35-3,3-3h18c1.65,0,3,1.34,3,3v2.01h-2.5c-1.93,0-3.5,1.57-3.5,3.5v1c0,1.94,1.57,3.5,3.5,3.5h2.5v1.99Z" stroke-width="0"/></svg>