<?xml version="1.0" encoding="UTF-8"?><svg id="b" xmlns="http://www.w3.org/2000/svg" width="1024" height="1024" xmlns:xlink="http://www.w3.org/1999/xlink" viewBox="0 0 1024 1024"><defs><linearGradient id="d" x1="512" y1="1024" x2="512" y2="0" gradientUnits="userSpaceOnUse"><stop offset="0" stop-color="#111"/><stop offset="1" stop-color="#323232"/></linearGradient></defs><g id="c"><rect width="1024" height="1024" fill="url(#d)" stroke-width="0"/><path d="M639.52,689.52c2.37-.1,3.93,2.43,2.74,4.49l-19.41,33.64c-49.27,85.33-172.43,85.33-221.7,0l-244.06-422.72c-.91-1.57-1.34-3.29-1.34-4.99,0-3.45,1.79-6.82,5-8.67,66.96-38.66,152.59-15.72,191.25,51.25l160,277.12c27.02,46.82,77.01,72.12,127.52,69.89Z" fill="#fff" stroke-width="0"/><path d="M866.91,304.92l-183.7,318.17c-7.97,13.8-23.37,21.55-39.21,19.75-41.11-4.68-79.63-27.47-103.01-64.98-1.56-2.5-1.6-5.67-.12-8.22l131.13-227.13c25.93-44.92,72.99-70.03,121.38-70.03,23.75,0,47.82,6.05,69.87,18.78,4.78,2.76,6.42,8.88,3.66,13.66Z" fill="#fff" stroke-width="0"/></g></svg>