<?xml version="1.0" encoding="UTF-8"?><svg id="b" xmlns="http://www.w3.org/2000/svg" width="712.5" height="519.16" viewBox="0 0 712.5 519.16"><g id="c"><path d="M483.77,417.04c2.37-.1,3.93,2.43,2.74,4.49l-19.41,33.64c-49.27,85.33-172.43,85.33-221.7,0L1.34,32.44c-.91-1.57-1.34-3.29-1.34-4.99,0-3.45,1.79-6.82,5-8.67C71.96-19.88,157.59,3.06,196.25,70.03l160,277.12c27.02,46.82,77.01,72.12,127.52,69.89Z" fill="#fff" stroke-width="0"/><path d="M711.16,32.44l-183.7,318.17c-7.97,13.8-23.37,21.55-39.21,19.75-41.11-4.68-79.63-27.47-103.01-64.98-1.56-2.5-1.6-5.67-.12-8.22l131.13-227.13C542.18,25.11,589.24,0,637.63,0,661.38,0,685.45,6.05,707.5,18.78c4.78,2.76,6.42,8.88,3.66,13.66Z" fill="#fff" stroke-width="0"/></g></svg>