<?xml version="1.0" encoding="UTF-8"?><svg id="b" xmlns="http://www.w3.org/2000/svg" width="80" height="80" viewBox="0 0 80 80"><path d="M4.11,21.94v-8.91c0-5.04,3.88-8.91,8.91-8.91h8.91c1.14,0,2.06-.92,2.06-2.06s-.92-2.06-2.06-2.06h-8.91C5.72,0,0,5.72,0,13.03v8.91c0,1.14.92,2.06,2.06,2.06s2.06-.92,2.06-2.06Z" stroke-width="0"/><path d="M75.89,21.94v-8.91c0-5.04-3.88-8.91-8.91-8.91h-8.91c-1.14,0-2.06-.92-2.06-2.06s.92-2.06,2.06-2.06h8.91c7.31,0,13.03,5.72,13.03,13.03v8.91c0,1.14-.92,2.06-2.06,2.06s-2.06-.92-2.06-2.06Z" stroke-width="0"/><path d="M4.11,58.06v8.91c0,5.04,3.88,8.91,8.91,8.91h8.91c1.14,0,2.06.92,2.06,2.06s-.92,2.06-2.06,2.06h-8.91c-7.31,0-13.03-5.72-13.03-13.03v-8.91c0-1.14.92-2.06,2.06-2.06s2.06.92,2.06,2.06Z" stroke-width="0"/><path d="M75.89,58.06v8.91c0,5.04-3.88,8.91-8.91,8.91h-8.91c-1.14,0-2.06.92-2.06,2.06s.92,2.06,2.06,2.06h8.91c7.31,0,13.03-5.72,13.03-13.03v-8.91c0-1.14-.92-2.06-2.06-2.06s-2.06.92-2.06,2.06Z" stroke-width="0"/><path id="l" d="M21.75,30.21v5.72c0,1.18.9,2.14,2,2.14s2-.96,2-2.14v-5.72c0-1.18-.9-2.14-2-2.14s-2,.96-2,2.14Z" stroke-width="0"/><path id="n" d="M54.74,30.21v5.72c0,1.18.9,2.14,2,2.14s2-.96,2-2.14v-5.72c0-1.18-.9-2.14-2-2.14s-2,.96-2,2.14Z" stroke-width="0"/><path id="o" d="M25.93,59.08c3.9,3.64,8.63,5.48,14.07,5.48s10.17-1.84,14.07-5.48c.85-.79.9-2.13.1-2.98-.79-.85-2.13-.9-2.98-.1-3.12,2.91-6.81,4.35-11.2,4.35s-8.08-1.44-11.2-4.35c-.85-.79-2.18-.75-2.98.1-.79.85-.75,2.18.1,2.98Z" stroke-width="0"/><path id="p" d="M40,30.18v14.74c0,.94-.46,1.4-1.41,1.4h-1.4c-1.16,0-2.11.94-2.11,2.11s.94,2.11,2.11,2.11h1.4c3.27,0,5.62-2.34,5.62-5.61v-14.74c0-1.16-.94-2.11-2.11-2.11s-2.11.94-2.11,2.11Z" stroke-width="0"/></svg>