<?xml version="1.0" encoding="UTF-8"?><svg id="b" xmlns="http://www.w3.org/2000/svg" width="24.63" height="27.46" viewBox="0 0 24.63 27.46"><path d="M22.92,7.36l-3.95-3.95v11.73c0,.28-.11.53-.29.71s-.43.29-.71.29c-.55,0-1-.45-1-1V3.41s-3.95,3.95-3.95,3.95c-.39.39-1.02.39-1.41,0s-.39-1.02,0-1.41L17.26.29c.09-.09.2-.17.32-.22C17.71.03,17.84,0,17.97,0s.26.03.39.08c.12.05.23.12.32.22l5.66,5.66c.39.39.39,1.02,0,1.41s-1.02.39-1.41,0Z" stroke-width="0"/><path d="M1.71,20.09l3.95,3.95v-11.73c0-.28.11-.53.29-.71s.43-.29.71-.29c.55,0,1,.45,1,1v11.73s3.95-3.95,3.95-3.95c.39-.39,1.02-.39,1.41,0s.39,1.02,0,1.41l-5.66,5.66c-.09.09-.2.17-.32.22-.12.05-.25.08-.39.08s-.26-.03-.39-.08c-.12-.05-.23-.12-.32-.22L.29,21.51c-.39-.39-.39-1.02,0-1.41s1.02-.39,1.41,0Z" stroke-width="0"/></svg>